<svg width="820" height="645" viewBox="0 0 820 645" fill="none" xmlns="http://www.w3.org/2000/svg">
<g clip-path="url(#clip0_18_112)">
<path d="M738.659 152.49C732.242 158.51 727.481 165.289 724.376 172.827C721.27 180.365 719.609 188.58 719.392 197.473C719.175 206.366 717.514 214.582 714.409 222.12C711.303 229.658 706.542 236.437 700.125 242.456C696.325 246.021 692.197 248.948 687.739 251.238C683.282 253.527 678.638 255.15 673.808 256.108C668.978 257.066 664.083 257.452 659.126 257.268C654.168 257.084 649.307 256.213 644.543 254.656C639.78 253.098 635.182 250.963 630.752 248.252C626.322 245.541 622.253 242.21 618.547 238.259C614.84 234.308 611.758 230.052 609.299 225.492C606.84 220.931 605.039 216.209 603.895 211.326C602.751 206.442 602.175 201.517 602.166 196.55C602.157 191.583 602.837 186.741 604.207 182.022C605.577 177.304 607.528 172.775 610.063 168.435C612.597 164.096 615.764 160.144 619.564 156.579C622.575 153.754 625.847 151.315 629.38 149.262C632.913 147.209 636.601 145.572 640.442 144.351C644.284 143.129 648.28 142.324 652.43 141.934C656.58 141.545 660.725 141.616 664.863 142.148C663.746 143.687 662.68 145.353 661.666 147.145C660.651 148.938 659.707 150.805 658.832 152.746C657.958 154.688 657.26 156.674 656.739 158.705C656.217 160.735 655.821 162.719 655.549 164.656C655.352 166.243 655.813 167.632 656.932 168.825C657.876 169.831 659.003 170.35 660.313 170.382C661.624 170.414 662.781 169.995 663.784 169.124C664.178 168.754 664.484 168.362 664.702 167.947C664.919 167.533 665.067 167.044 665.145 166.48C665.636 164.058 666.231 161.783 666.931 159.655C667.63 157.527 668.453 155.459 669.399 153.45C670.346 151.441 671.503 149.549 672.871 147.775C674.24 146.001 675.803 144.254 677.56 142.536C681.826 138.534 686.628 135.606 691.966 133.752C697.303 131.898 702.751 131.132 708.31 131.453C713.868 131.775 719.272 133.117 724.522 135.48C729.772 137.843 734.512 141.244 738.744 145.684L742.101 149.262L738.659 152.49ZM625.43 231.802C630.08 236.76 635.33 240.559 641.178 243.202C647.027 245.844 653.049 247.342 659.245 247.696C665.441 248.051 671.474 247.19 677.346 245.116C683.218 243.041 688.573 239.769 693.412 235.3C698.825 230.222 702.883 224.453 705.585 217.994C708.287 211.535 709.685 204.548 709.779 197.032C709.929 187.781 711.543 179.12 714.619 171.048C717.696 162.976 722.288 155.585 728.394 148.876C725.098 146.152 721.527 144.141 717.681 142.844C713.835 141.546 709.91 140.919 705.906 140.961C701.902 141.003 698.066 141.764 694.398 143.242C690.731 144.721 687.356 146.871 684.274 149.692C681.477 152.315 679.352 155.115 677.898 158.091C676.444 161.067 675.374 164.453 674.689 168.249C674.421 169.831 673.961 171.28 673.306 172.594C672.652 173.908 671.733 175.156 670.549 176.336C669.116 177.682 667.509 178.663 665.73 179.281C663.951 179.899 662.123 180.142 660.247 180.01C658.371 179.878 656.551 179.447 654.789 178.718C653.026 177.989 651.446 176.844 650.049 175.282C648.44 173.567 647.329 171.772 646.714 169.895C646.1 168.019 645.841 166.09 645.936 164.109C646.032 162.127 646.358 160.139 646.914 158.146C647.47 156.153 648.061 154.197 648.688 152.278C644.462 153.018 640.459 154.391 636.679 156.396C632.898 158.4 629.431 160.847 626.277 163.736C621.509 168.208 617.92 173.327 615.51 179.092C613.1 184.857 611.839 190.84 611.726 197.042C611.613 203.244 612.707 209.331 615.006 215.303C617.306 221.274 620.78 226.774 625.43 231.802Z" fill="black" fill-opacity="0.6"/>
</g>
<g clip-path="url(#clip1_18_112)">
<path d="M428.072 134.568C426.043 143.129 425.813 151.41 427.383 159.41C428.953 167.41 432.101 175.178 436.828 182.714C441.554 190.25 444.703 198.018 446.273 206.018C447.843 214.018 447.613 222.299 445.584 230.86C444.382 235.93 442.554 240.649 440.1 245.018C437.646 249.387 434.67 253.303 431.17 256.767C427.67 260.232 423.802 263.255 419.566 265.837C415.329 268.42 410.795 270.376 405.963 271.706C401.131 273.035 396.119 273.792 390.928 273.976C385.737 274.16 380.506 273.627 375.235 272.378C369.964 271.128 365.045 269.28 360.477 266.833C355.91 264.387 351.802 261.443 348.153 258.002C344.505 254.56 341.306 250.771 338.558 246.634C335.809 242.497 333.704 238.083 332.242 233.392C330.781 228.701 329.909 223.847 329.628 218.83C329.347 213.813 329.807 208.769 331.009 203.699C331.961 199.682 333.344 195.842 335.158 192.18C336.971 188.518 339.143 185.118 341.672 181.98C344.202 178.841 347.09 175.964 350.336 173.349C353.582 170.734 357.078 168.507 360.823 166.667C360.74 168.567 360.77 170.544 360.914 172.599C361.057 174.653 361.3 176.731 361.642 178.833C361.984 180.935 362.498 182.976 363.184 184.957C363.87 186.939 364.634 188.812 365.476 190.578C366.187 192.009 367.338 192.913 368.929 193.291C370.272 193.609 371.499 193.42 372.609 192.723C373.72 192.027 374.453 191.039 374.809 189.759C374.933 189.233 374.972 188.737 374.925 188.271C374.878 187.805 374.731 187.316 374.485 186.803C373.558 184.512 372.799 182.286 372.208 180.125C371.617 177.965 371.162 175.786 370.842 173.588C370.523 171.391 370.444 169.175 370.606 166.94C370.768 164.705 371.108 162.386 371.625 159.983C372.974 154.291 375.363 149.2 378.791 144.708C382.22 140.217 386.34 136.572 391.153 133.772C395.966 130.973 401.213 129.11 406.895 128.184C412.577 127.258 418.408 127.478 424.387 128.845L429.161 129.976L428.072 134.568ZM377.412 263.195C384.026 264.763 390.5 265.034 396.836 264.011C403.171 262.987 409.02 260.913 414.383 257.789C419.745 254.665 424.302 250.618 428.054 245.648C431.806 240.677 434.467 234.994 436.036 228.596C437.748 221.374 437.948 214.324 436.637 207.447C435.326 200.569 432.636 193.97 428.567 187.651C423.587 179.853 420.153 171.739 418.265 163.31C416.376 154.881 416.127 146.184 417.517 137.218C413.265 136.766 409.177 137.06 405.254 138.1C401.331 139.14 397.711 140.783 394.395 143.027C391.079 145.272 388.3 148.023 386.057 151.28C383.815 154.537 382.187 158.193 381.173 162.246C380.289 165.977 380.061 169.484 380.491 172.769C380.92 176.053 381.897 179.467 383.42 183.011C384.07 184.478 384.485 185.94 384.665 187.398C384.845 188.855 384.767 190.402 384.431 192.04C383.978 193.953 383.18 195.658 382.037 197.155C380.894 198.653 379.504 199.864 377.866 200.789C376.229 201.714 374.474 202.359 372.602 202.724C370.73 203.088 368.78 203.005 366.752 202.474C364.465 201.931 362.547 201.047 361 199.822C359.452 198.596 358.171 197.131 357.157 195.425C356.143 193.72 355.318 191.883 354.682 189.913C354.046 187.944 353.46 185.986 352.923 184.04C349.808 186.99 347.227 190.343 345.18 194.102C343.134 197.86 341.593 201.814 340.557 205.963C339.049 212.324 338.88 218.573 340.052 224.711C341.223 230.848 343.473 236.534 346.802 241.769C350.13 247.003 354.401 251.476 359.614 255.187C364.827 258.898 370.76 261.567 377.412 263.195Z" fill="black" fill-opacity="0.6"/>
</g>
<g clip-path="url(#clip2_18_112)">
<path d="M389.227 375.307C382.361 380.809 377.087 387.197 373.404 394.47C369.721 401.744 367.426 409.805 366.517 418.654C365.609 427.503 363.313 435.564 359.631 442.838C355.948 450.112 350.674 456.499 343.808 462.001C339.742 465.26 335.398 467.856 330.776 469.792C326.154 471.727 321.398 472.984 316.508 473.563C311.617 474.142 306.708 474.147 301.779 473.577C296.851 473.008 292.073 471.761 287.445 469.837C282.817 467.914 278.4 465.428 274.194 462.38C269.988 459.333 266.191 455.695 262.803 451.468C259.416 447.24 256.674 442.757 254.577 438.019C252.481 433.281 251.053 428.433 250.292 423.475C249.532 418.518 249.341 413.563 249.718 408.61C250.096 403.658 251.151 398.883 252.884 394.285C254.617 389.687 256.915 385.324 259.779 381.195C262.643 377.066 266.108 373.373 270.174 370.115C273.396 367.533 276.848 365.356 280.531 363.584C284.213 361.812 288.016 360.467 291.941 359.548C295.867 358.629 299.913 358.137 304.081 358.072C308.249 358.007 312.375 358.4 316.46 359.253C315.226 360.7 314.034 362.278 312.883 363.986C311.732 365.694 310.645 367.482 309.622 369.35C308.599 371.217 307.749 373.143 307.071 375.127C306.393 377.111 305.843 379.058 305.421 380.968C305.102 382.534 305.453 383.955 306.476 385.231C307.339 386.308 308.422 386.913 309.726 387.047C311.03 387.181 312.216 386.853 313.284 386.063C313.706 385.725 314.041 385.358 314.291 384.961C314.54 384.565 314.725 384.089 314.847 383.533C315.525 381.156 316.295 378.934 317.158 376.867C318.021 374.8 319.003 372.802 320.102 370.873C321.202 368.944 322.503 367.148 324.006 365.486C325.508 363.824 327.202 362.204 329.088 360.627C333.652 356.97 338.668 354.424 344.133 352.992C349.599 351.559 355.09 351.219 360.607 351.972C366.123 352.725 371.406 354.484 376.456 357.248C381.506 360.013 385.968 363.773 389.841 368.528L392.909 372.356L389.227 375.307ZM270.168 445.566C274.418 450.87 279.356 455.067 284.981 458.156C290.606 461.246 296.494 463.208 302.643 464.044C308.793 464.879 314.875 464.491 320.891 462.88C326.906 461.268 332.5 458.423 337.672 454.344C343.463 449.703 347.958 444.267 351.155 438.038C354.351 431.809 356.289 424.952 356.967 417.466C357.837 408.255 360.12 399.745 363.816 391.937C367.511 384.13 372.664 377.119 379.274 370.905C376.2 367.933 372.796 365.65 369.063 364.057C365.33 362.464 361.466 361.533 357.47 361.264C353.475 360.994 349.592 361.454 345.82 362.642C342.048 363.831 338.516 365.712 335.224 368.285C332.232 370.682 329.896 373.308 328.214 376.161C326.533 379.015 325.203 382.308 324.224 386.039C323.834 387.596 323.262 389.004 322.508 390.263C321.753 391.523 320.74 392.695 319.468 393.78C317.933 395.01 316.255 395.863 314.433 396.341C312.612 396.818 310.77 396.918 308.91 396.641C307.05 396.363 305.27 395.792 303.57 394.928C301.869 394.064 300.383 392.799 299.111 391.133C297.641 389.298 296.673 387.422 296.206 385.503C295.74 383.585 295.631 381.642 295.881 379.674C296.13 377.705 296.61 375.749 297.32 373.805C298.029 371.861 298.771 369.957 299.545 368.093C295.274 368.502 291.177 369.559 287.252 371.263C283.327 372.968 279.679 375.137 276.31 377.772C271.209 381.86 267.232 386.684 264.381 392.243C261.529 397.803 259.806 403.67 259.211 409.845C258.616 416.019 259.232 422.173 261.06 428.305C262.888 434.438 265.924 440.191 270.168 445.566Z" fill="black" fill-opacity="0.6"/>
</g>
<g clip-path="url(#clip3_18_112)">
<path d="M510.14 -1.73596L577.764 9.94214C579.258 10.2002 580.796 9.84432 582.038 8.95267C583.281 8.06102 584.126 6.70669 584.388 5.1876L590.323 -29.1787C590.585 -30.6978 590.243 -32.2572 589.372 -33.5139C588.5 -34.7705 587.171 -35.6215 585.677 -35.8796L518.053 -47.5577C516.558 -47.8158 515.021 -47.4599 513.778 -46.5682C512.536 -45.6766 511.691 -44.3223 511.428 -42.8032L505.493 -8.43685C505.231 -6.91776 505.573 -5.35837 506.445 -4.10171C507.316 -2.84505 508.645 -1.99406 510.14 -1.73596ZM521.71 -35.1291L578.063 -25.3974L574.107 -2.48647L517.753 -12.2182L521.71 -35.1291ZM606.539 -55.871L505.103 -73.3881C502.114 -73.9043 499.039 -73.1925 496.554 -71.4092C494.07 -69.6259 492.379 -66.9172 491.854 -63.879L470.093 62.1308C469.569 65.169 470.253 68.2878 471.996 70.8011C473.738 73.3144 476.397 75.0164 479.386 75.5326L580.822 93.0497C583.811 93.566 586.886 92.8541 589.371 91.0708C591.856 89.2875 593.546 86.5788 594.071 83.5407L615.832 -42.4692C616.356 -45.5074 615.672 -48.6262 613.929 -51.1395C612.187 -53.6528 609.528 -55.3548 606.539 -55.871ZM582.8 81.5943L481.364 64.0772L503.125 -61.9327L604.561 -44.4155L582.8 81.5943ZM520.766 20.744C520.473 22.4433 519.69 24.0187 518.517 25.2712C517.344 26.5237 515.834 27.3969 514.177 27.7804C512.52 28.164 510.791 28.0406 509.209 27.4259C507.626 26.8113 506.261 25.7329 505.287 24.3272C504.312 22.9215 503.771 21.2516 503.733 19.5287C503.695 17.8057 504.16 16.1072 505.071 14.6477C505.982 13.1883 507.297 12.0336 508.85 11.3296C510.404 10.6256 512.125 10.4039 513.797 10.6927C516.039 11.0798 518.032 12.3563 519.339 14.2413C520.646 16.1263 521.16 18.4654 520.766 20.744ZM548.943 25.6099C548.649 27.3091 547.867 28.8846 546.694 30.1371C545.521 31.3896 544.011 32.2628 542.354 32.6463C540.697 33.0299 538.968 32.9065 537.385 32.2918C535.803 31.6771 534.438 30.5988 533.463 29.1931C532.489 27.7874 531.948 26.1175 531.91 24.3945C531.871 22.6716 532.337 20.973 533.248 19.5136C534.159 18.0542 535.474 16.8995 537.027 16.1955C538.58 15.4915 540.302 15.2698 541.973 15.5585C544.215 15.9457 546.209 17.2222 547.516 19.1072C548.823 20.9922 549.336 23.3312 548.943 25.6099ZM577.119 30.4758C576.826 32.175 576.043 33.7505 574.871 35.003C573.698 36.2554 572.187 37.1287 570.53 37.5122C568.874 37.8957 567.145 37.7724 565.562 37.1577C563.98 36.543 562.615 35.4646 561.64 34.0589C560.665 32.6532 560.125 30.9833 560.086 29.2604C560.048 27.5375 560.514 25.8389 561.425 24.3795C562.336 22.9201 563.651 21.7654 565.204 21.0614C566.757 20.3574 568.478 20.1357 570.15 20.4244C572.392 20.8116 574.386 22.088 575.693 23.973C577 25.858 577.513 28.1971 577.119 30.4758ZM515.82 49.3826C515.527 51.0819 514.744 52.6573 513.572 53.9098C512.399 55.1623 510.888 56.0355 509.231 56.419C507.575 56.8026 505.846 56.6792 504.263 56.0646C502.681 55.4499 501.316 54.3715 500.341 52.9658C499.366 51.5601 498.826 49.8902 498.787 48.1673C498.749 46.4443 499.215 44.7458 500.126 43.2863C501.037 41.8269 502.352 40.6722 503.905 39.9682C505.458 39.2642 507.179 39.0425 508.851 39.3313C511.093 39.7184 513.087 40.9949 514.394 42.8799C515.701 44.7649 516.214 47.104 515.82 49.3826ZM543.997 54.2485C543.704 55.9477 542.921 57.5232 541.748 58.7757C540.575 60.0282 539.065 60.9014 537.408 61.2849C535.751 61.6685 534.022 61.5451 532.44 60.9304C530.857 60.3157 529.492 59.2374 528.518 57.8317C527.543 56.426 527.002 54.7561 526.964 53.0331C526.926 51.3102 527.391 49.6116 528.302 48.1522C529.213 46.6928 530.528 45.5381 532.082 44.8341C533.635 44.1301 535.356 43.9084 537.028 44.1971C539.27 44.5843 541.263 45.8608 542.57 47.7458C543.877 49.6308 544.391 51.9698 543.997 54.2485ZM572.174 59.1144C571.88 60.8136 571.098 62.3891 569.925 63.6416C568.752 64.894 567.242 65.7673 565.585 66.1508C563.928 66.5343 562.199 66.411 560.616 65.7963C559.034 65.1816 557.669 64.1032 556.694 62.6975C555.72 61.2918 555.179 59.6219 555.141 57.899C555.102 56.1761 555.568 54.4775 556.479 53.0181C557.39 51.5587 558.705 50.404 560.258 49.7C561.811 48.996 563.533 48.7743 565.204 49.063C567.446 49.4502 569.44 50.7266 570.747 52.6116C572.054 54.4966 572.567 56.8357 572.174 59.1144Z" fill="black" fill-opacity="0.6"/>
</g>
<g clip-path="url(#clip4_18_112)">
<path d="M541.24 334.063L572.258 395.278C572.943 396.631 574.147 397.652 575.604 398.116C577.061 398.58 578.653 398.449 580.028 397.752L611.137 381.989C612.512 381.292 613.558 380.086 614.046 378.637C614.534 377.188 614.422 375.613 613.737 374.26L582.719 313.045C582.033 311.692 580.83 310.672 579.372 310.208C577.915 309.744 576.324 309.875 574.949 310.571L543.84 326.335C542.465 327.031 541.418 328.237 540.931 329.686C540.443 331.136 540.554 332.71 541.24 334.063ZM574.934 323.401L600.782 374.413L580.043 384.922L554.194 333.91L574.934 323.401ZM642.231 379.055L595.704 287.233C594.333 284.527 591.925 282.485 589.011 281.557C586.097 280.63 582.915 280.891 580.164 282.285L466.097 340.083C463.347 341.477 461.254 343.888 460.279 346.787C459.304 349.686 459.526 352.834 460.897 355.54L507.424 447.363C508.795 450.069 511.203 452.11 514.117 453.038C517.031 453.966 520.213 453.704 522.964 452.311L637.031 394.512C639.781 393.119 641.874 390.707 642.849 387.808C643.824 384.91 643.602 381.761 642.231 379.055ZM517.794 442.108L471.267 350.286L585.334 292.487L631.861 384.31L517.794 442.108ZM529.555 356.011C528.017 356.791 526.286 357.104 524.581 356.911C522.876 356.718 521.273 356.029 519.976 354.929C518.679 353.829 517.745 352.368 517.293 350.732C516.841 349.095 516.891 347.357 517.437 345.735C517.982 344.114 518.999 342.683 520.358 341.623C521.717 340.564 523.357 339.923 525.072 339.782C526.786 339.641 528.498 340.006 529.99 340.832C531.482 341.657 532.688 342.905 533.455 344.419C534.483 346.448 534.65 348.81 533.919 350.984C533.187 353.158 531.618 354.966 529.555 356.011ZM542.479 381.518C540.941 382.297 539.21 382.61 537.505 382.417C535.8 382.225 534.197 381.535 532.9 380.435C531.603 379.335 530.67 377.874 530.218 376.238C529.766 374.602 529.815 372.863 530.361 371.242C530.906 369.62 531.923 368.189 533.282 367.13C534.641 366.07 536.281 365.429 537.996 365.288C539.711 365.147 541.422 365.513 542.914 366.338C544.407 367.163 545.612 368.412 546.379 369.925C547.407 371.954 547.574 374.316 546.843 376.49C546.111 378.664 544.542 380.472 542.479 381.518ZM555.403 407.024C553.865 407.803 552.134 408.116 550.429 407.924C548.724 407.731 547.122 407.041 545.824 405.941C544.527 404.841 543.594 403.381 543.142 401.744C542.69 400.108 542.74 398.369 543.285 396.748C543.83 395.127 544.847 393.696 546.206 392.636C547.565 391.576 549.206 390.935 550.92 390.795C552.635 390.654 554.346 391.019 555.839 391.844C557.331 392.67 558.536 393.918 559.303 395.431C560.332 397.461 560.498 399.822 559.767 401.996C559.036 404.17 557.466 405.979 555.403 407.024ZM503.631 369.147C502.092 369.927 500.361 370.24 498.656 370.047C496.951 369.855 495.349 369.165 494.052 368.065C492.755 366.965 491.821 365.504 491.369 363.868C490.917 362.231 490.967 360.493 491.512 358.871C492.058 357.25 493.074 355.819 494.433 354.76C495.792 353.7 497.433 353.059 499.147 352.918C500.862 352.777 502.574 353.142 504.066 353.968C505.558 354.793 506.764 356.041 507.531 357.555C508.559 359.584 508.726 361.946 507.994 364.12C507.263 366.294 505.693 368.102 503.631 369.147ZM516.555 394.654C515.017 395.433 513.285 395.746 511.58 395.554C509.875 395.361 508.273 394.671 506.976 393.571C505.679 392.471 504.745 391.01 504.293 389.374C503.841 387.738 503.891 385.999 504.436 384.378C504.982 382.756 505.998 381.325 507.357 380.266C508.716 379.206 510.357 378.565 512.072 378.424C513.786 378.283 515.498 378.649 516.99 379.474C518.482 380.299 519.688 381.548 520.455 383.061C521.483 385.09 521.65 387.452 520.918 389.626C520.187 391.8 518.617 393.609 516.555 394.654ZM529.479 420.16C527.941 420.939 526.21 421.252 524.505 421.06C522.8 420.867 521.197 420.177 519.9 419.077C518.603 417.977 517.669 416.517 517.217 414.88C516.765 413.244 516.815 411.505 517.361 409.884C517.906 408.263 518.923 406.832 520.282 405.772C521.641 404.712 523.281 404.072 524.996 403.931C526.71 403.79 528.422 404.155 529.914 404.98C531.406 405.806 532.612 407.054 533.379 408.567C534.407 410.597 534.574 412.958 533.843 415.132C533.111 417.306 531.542 419.115 529.479 420.16Z" fill="black" fill-opacity="0.6"/>
</g>
<g clip-path="url(#clip5_18_112)">
<path d="M290.463 12.3668L333.913 65.4846C334.873 66.6586 336.268 67.3968 337.791 67.5367C339.313 67.6767 340.839 67.207 342.032 66.2309L369.027 44.1499C370.22 43.1738 370.983 41.7714 371.147 40.2511C371.312 38.7308 370.865 37.2172 369.905 36.0432L326.455 -17.0746C325.495 -18.2486 324.1 -18.9867 322.577 -19.1267C321.054 -19.2667 319.528 -18.797 318.335 -17.8209L291.341 4.26016C290.148 5.23621 289.385 6.63864 289.22 8.15893C289.055 9.67922 289.502 11.1928 290.463 12.3668ZM321.078 -5.28776L357.286 38.9771L339.29 53.6978L303.082 9.43295L321.078 -5.28776ZM398.764 34.6019L333.589 -45.0748C331.668 -47.4227 328.878 -48.899 325.833 -49.179C322.787 -49.4589 319.736 -48.5195 317.349 -46.5674L218.37 34.3965C215.984 36.3486 214.458 39.1535 214.128 42.1941C213.799 45.2347 214.693 48.2619 216.614 50.6099L281.788 130.287C283.709 132.635 286.499 134.111 289.544 134.391C292.59 134.671 295.642 133.731 298.028 131.779L397.007 50.8153C399.394 48.8632 400.919 46.0583 401.249 43.0177C401.578 39.9771 400.684 36.9499 398.764 34.6019ZM290.786 122.926L225.612 43.2495L324.591 -37.7144L389.765 41.9623L290.786 122.926ZM283.768 36.3137C282.433 37.4055 280.81 38.0833 279.103 38.2616C277.397 38.4398 275.684 38.1103 274.18 37.3149C272.677 36.5195 271.452 35.2938 270.658 33.7928C269.865 32.2918 269.54 30.583 269.724 28.8824C269.909 27.1817 270.594 25.5658 271.693 24.2387C272.793 22.9117 274.257 21.9333 275.902 21.4271C277.546 20.921 279.296 20.9098 280.931 21.3952C282.565 21.8805 284.011 22.8404 285.085 24.1537C286.526 25.9146 287.196 28.1851 286.949 30.4655C286.702 32.746 285.558 34.8496 283.768 36.3137ZM301.872 58.4461C300.537 59.5379 298.914 60.2157 297.208 60.394C295.501 60.5722 293.788 60.2428 292.285 59.4473C290.781 58.6519 289.556 57.4262 288.762 55.9252C287.969 54.4242 287.644 52.7154 287.829 51.0148C288.013 49.3142 288.698 47.6982 289.797 46.3712C290.897 45.0441 292.361 44.0657 294.006 43.5595C295.65 43.0534 297.4 43.0423 299.035 43.5276C300.669 44.0129 302.115 44.9729 303.19 46.2861C304.63 48.047 305.3 50.3175 305.053 52.5979C304.806 54.8784 303.662 56.982 301.872 58.4461ZM319.976 80.5785C318.642 81.6703 317.018 82.3482 315.312 82.5264C313.605 82.7046 311.892 82.3752 310.389 81.5797C308.885 80.7843 307.66 79.5586 306.867 78.0576C306.073 76.5566 305.748 74.8478 305.933 73.1472C306.117 71.4466 306.802 69.8306 307.902 68.5036C309.001 67.1765 310.466 66.1981 312.11 65.692C313.754 65.1858 315.504 65.1747 317.139 65.66C318.774 66.1453 320.219 67.1053 321.294 68.4185C322.734 70.1795 323.405 72.4499 323.157 74.7303C322.91 77.0108 321.766 79.1144 319.976 80.5785ZM261.273 54.7145C259.938 55.8064 258.315 56.4842 256.608 56.6624C254.902 56.8407 253.188 56.5112 251.685 55.7158C250.182 54.9204 248.956 53.6947 248.163 52.1937C247.37 50.6927 247.045 48.9839 247.229 47.2832C247.413 45.5826 248.099 43.9666 249.198 42.6396C250.298 41.3126 251.762 40.3342 253.406 39.828C255.051 39.3219 256.801 39.3107 258.435 39.7961C260.07 40.2814 261.516 41.2413 262.59 42.5546C264.031 44.3155 264.701 46.586 264.454 48.8664C264.207 51.1468 263.063 53.2505 261.273 54.7145ZM279.377 76.847C278.042 77.9388 276.419 78.6166 274.712 78.7949C273.006 78.9731 271.292 78.6436 269.789 77.8482C268.286 77.0528 267.06 75.8271 266.267 74.3261C265.474 72.8251 265.149 71.1163 265.333 69.4157C265.518 67.7151 266.203 66.0991 267.302 64.772C268.402 63.445 269.866 62.4666 271.51 61.9604C273.155 61.4543 274.905 61.4432 276.539 61.9285C278.174 62.4138 279.62 63.3738 280.694 64.687C282.135 66.4479 282.805 68.7184 282.558 70.9988C282.311 73.2793 281.167 75.3829 279.377 76.847ZM297.481 98.9794C296.146 100.071 294.523 100.749 292.816 100.927C291.11 101.106 289.397 100.776 287.893 99.9806C286.39 99.1852 285.164 97.9595 284.371 96.4585C283.578 94.9575 283.253 93.2487 283.437 91.5481C283.622 89.8475 284.307 88.2315 285.406 86.9045C286.506 85.5774 287.97 84.599 289.615 84.0928C291.259 83.5867 293.009 83.5756 294.644 84.0609C296.278 84.5462 297.724 85.5062 298.798 86.8194C300.239 88.5804 300.909 90.8508 300.662 93.1312C300.415 95.4117 299.271 97.5153 297.481 98.9794Z" fill="black" fill-opacity="0.6"/>
</g>
<defs>
<clipPath id="clip0_18_112">
<rect width="157" height="151" fill="white" transform="translate(674.966 77.6973) rotate(46.8293)"/>
</clipPath>
<clipPath id="clip1_18_112">
<rect width="157" height="151" fill="white" transform="translate(333.682 107.343) rotate(13.336)"/>
</clipPath>
<clipPath id="clip2_18_112">
<rect width="157" height="151" fill="white" transform="translate(331.548 295.784) rotate(51.2931)"/>
</clipPath>
<clipPath id="clip3_18_112">
<rect width="183" height="186" fill="white" transform="translate(468.623 -97.3835) rotate(9.79786)"/>
</clipPath>
<clipPath id="clip4_18_112">
<rect width="183" height="186" fill="white" transform="translate(593.165 243.642) rotate(63.1284)"/>
</clipPath>
<clipPath id="clip5_18_112">
<rect width="183" height="186" fill="white" transform="translate(321.74 -87.1006) rotate(50.7172)"/>
</clipPath>
</defs>
</svg>
