<svg width="462" height="548" viewBox="0 0 462 548" fill="none" xmlns="http://www.w3.org/2000/svg">
<path d="M373.57 15.763C373.57 10.7025 378.106 6.27791 383.966 6.809C403.044 8.54399 420.72 16.7847 433.5 29.9028C437.443 33.9384 436.216 39.9292 431.735 42.9093L430.176 43.9478L428.838 42.1212L428.809 42.084C417.054 27.1763 397.928 17.4747 376.334 17.4747H373.57V15.763ZM424.306 45.0235L425.699 46.928L411.154 56.6195L410.409 57.1269V64.2374C410.409 65.1345 410.021 65.9949 409.33 66.6293C408.639 67.2637 407.702 67.6201 406.724 67.6201C405.747 67.6201 404.81 67.2637 404.119 66.6293C403.428 65.9949 403.039 65.1345 403.039 64.2374V64.0344C402.98 63.6086 402.747 63.2194 402.387 62.9455C402.027 62.6716 401.567 62.5336 401.101 62.5594C400.634 62.5852 400.196 62.7729 399.874 63.0845C399.552 63.396 399.372 63.8082 399.369 64.2374V69.3148C399.369 70.1827 399.006 71.0175 398.354 71.6464C397.703 72.2753 396.813 72.6503 395.869 72.6937C394.924 72.7372 393.998 72.4458 393.281 71.8798C392.564 71.3139 392.112 70.5167 392.017 69.6531L386.711 73.1711C381.224 76.8042 373.555 73.2083 373.559 66.9943L373.57 22.5454H376.334C396.064 22.5454 413.538 31.398 424.306 45.0235ZM388.314 37.1756C389.291 37.1756 390.229 36.8192 390.92 36.1849C391.611 35.5505 391.999 34.6901 391.999 33.7929C391.999 32.8958 391.611 32.0354 390.92 31.401C390.229 30.7666 389.291 30.4102 388.314 30.4102C387.337 30.4102 386.399 30.7666 385.708 31.401C385.017 32.0354 384.629 32.8958 384.629 33.7929C384.629 34.6901 385.017 35.5505 385.708 36.1849C386.399 36.8192 387.337 37.1756 388.314 37.1756ZM403.054 47.317C404.031 47.317 404.969 46.9606 405.66 46.3262C406.351 45.6919 406.739 44.8315 406.739 43.9343C406.739 43.0372 406.351 42.1768 405.66 41.5424C404.969 40.908 404.031 40.5516 403.054 40.5516C402.077 40.5516 401.14 40.908 400.448 41.5424C399.757 42.1768 399.369 43.0372 399.369 43.9343C399.369 44.8315 399.757 45.6919 400.448 46.3262C401.14 46.9606 402.077 47.317 403.054 47.317ZM388.314 57.4584C389.291 57.4584 390.229 57.102 390.92 56.4676C391.611 55.8333 391.999 54.9728 391.999 54.0757C391.999 53.1785 391.611 52.3181 390.92 51.6838C390.229 51.0494 389.291 50.693 388.314 50.693C387.337 50.693 386.399 51.0494 385.708 51.6838C385.017 52.3181 384.629 53.1785 384.629 54.0757C384.629 54.9728 385.017 55.8333 385.708 56.4676C386.399 57.102 387.337 57.4584 388.314 57.4584Z" fill="black" fill-opacity="0.6"/>
<path d="M447.26 274C454.63 284.148 436.205 314.592 428.835 314.592C421.465 314.592 421.465 311.21 417.78 311.21C414.095 311.21 414.095 314.592 406.725 314.592C399.355 314.592 380.929 284.148 388.299 274C395.67 263.852 406.725 263.852 414.095 267.234V257.086C393.385 267.471 388.705 252.959 388.705 252.959C388.705 252.959 398.507 240.815 414.095 257.086V250.321H421.465V267.234C428.835 263.852 439.89 263.852 447.26 274Z" fill="black" fill-opacity="0.6"/>
<path d="M128.998 492.835C123.47 497.912 122.49 505.96 122.652 512.049C122.661 512.396 122.524 512.733 122.271 512.991C122.017 513.249 121.666 513.408 121.289 513.436C115.665 513.781 108.796 514.816 103.136 517.583C101.242 518.513 100.546 520.279 100.999 521.889C101.441 523.425 102.86 524.68 104.787 525.011C107.493 525.464 110.172 526.046 112.813 526.753C114.081 527.105 115.216 527.481 116.137 527.87C117.091 528.269 117.685 528.631 117.987 528.908C118.289 529.186 118.68 529.73 119.115 530.603C119.538 531.449 119.944 532.49 120.331 533.657C121.097 535.985 121.735 538.677 122.217 541.022C122.578 542.791 123.946 544.1 125.615 544.499C127.373 544.922 129.296 544.283 130.306 542.537C133.32 537.348 134.452 531.043 134.831 525.881C134.861 525.534 135.035 525.212 135.315 524.979C135.596 524.746 135.964 524.621 136.342 524.629C142.975 524.778 151.746 523.885 157.273 518.804C160.56 515.787 162.196 511.761 162.944 507.807C163.696 503.839 163.586 499.8 163.25 496.576C163.017 494.201 161.884 491.977 160.048 490.29C158.211 488.604 155.788 487.563 153.201 487.348C149.689 487.04 145.289 486.942 140.974 487.629C136.663 488.316 132.281 489.817 128.998 492.835ZM146.008 495.565C146.741 495.565 147.444 495.832 147.962 496.308C148.481 496.784 148.772 497.429 148.772 498.102C148.772 498.775 148.481 499.42 147.962 499.896C147.444 500.371 146.741 500.639 146.008 500.639C145.275 500.639 144.572 500.371 144.054 499.896C143.535 499.42 143.244 498.775 143.244 498.102C143.244 497.429 143.535 496.784 144.054 496.308C144.572 495.832 145.275 495.565 146.008 495.565Z" fill="black" fill-opacity="0.6"/>
<path d="M207.364 331.506C192.992 331.506 181.568 343.007 181.937 356.2C182.305 364.995 187.833 372.437 195.572 376.158C200.731 378.526 204.047 383.261 204.047 388.335V389.012C204.047 394.763 208.838 399.16 215.102 399.16C229.842 399.16 233.527 382.247 233.527 355.185C233.527 355.185 233.527 331.506 207.364 331.506ZM215.102 392.395C212.891 392.395 211.417 391.042 211.417 389.012V388.335C211.417 380.894 206.627 373.79 199.257 370.069C193.361 367.363 189.675 361.95 189.307 355.861C189.307 351.464 191.149 346.728 194.466 343.345C197.783 339.963 202.573 338.271 206.995 338.271C225.052 338.271 226.157 352.479 226.157 355.185C226.157 388.674 219.893 392.395 215.102 392.395ZM221.735 350.449L194.098 359.582C193.361 358.568 192.992 357.215 192.992 355.523C192.992 353.155 193.729 351.126 194.835 348.758L213.997 342.331C218.419 344.36 220.63 347.405 221.735 350.449ZM211.049 375.819L221.367 372.437C220.998 377.511 219.893 381.232 219.156 383.6L214.365 385.291C214.365 381.908 213.26 378.864 211.049 375.819ZM222.472 355.861C222.472 359.921 222.472 363.642 222.104 366.686L207.364 371.76C205.521 370.069 203.31 368.377 200.731 367.363C199.257 366.686 197.783 365.671 196.677 364.656L222.472 355.861Z" fill="black" fill-opacity="0.6"/>
<path d="M134.031 209.728L89.8109 214.498V219.877H134.031V223.259H89.8109V240.173H134.031C134.031 246.296 131.931 251.877 127.84 256.917C123.75 261.958 118.444 265.645 111.921 268.08V274H82.4408V268.08C75.9551 265.645 70.6118 261.924 66.5214 256.917C62.431 251.911 60.3306 246.296 60.3306 240.173H71.3857V213.111L134.031 206.346V209.728ZM75.0707 216.088V219.877H78.7558V215.75L75.0707 216.088ZM75.0707 223.259V240.173H78.7558V223.259H75.0707ZM86.1258 240.173V223.259H82.4408V240.173H86.1258ZM86.1258 219.877V214.972L82.4408 215.276V219.877H86.1258Z" fill="black" fill-opacity="0.6"/>
<path d="M40.4682 332.476C39.8447 331.979 39.0464 331.705 38.2203 331.705C37.3943 331.705 36.596 331.979 35.9724 332.476C33.1714 334.703 30.909 337.443 29.3306 340.52C27.7522 343.597 26.8929 346.944 26.8078 350.344C26.8058 350.66 26.9008 350.97 27.082 351.239C27.2632 351.507 27.5232 351.723 27.8322 351.863C30.0734 352.933 32.175 354.234 34.0968 355.739C35.0475 356.48 35.9098 357.255 36.691 358.043C37.5017 358.862 38.9389 358.862 39.7496 358.043C40.5345 357.255 41.3968 356.48 42.3439 355.743C44.2651 354.236 46.3668 352.936 48.6084 351.866C48.9181 351.727 49.1789 351.511 49.3607 351.243C49.5426 350.974 49.6382 350.664 49.6366 350.347C49.552 346.946 48.6929 343.599 47.1145 340.521C45.5361 337.444 43.2734 334.703 40.4719 332.476H40.4682ZM38.2203 385.774C41.1786 380.994 45.6244 377.132 50.9882 374.686C56.352 372.239 62.3895 371.318 68.3271 372.041C70.1254 372.257 71.4704 373.732 71.3304 375.437C70.7891 381.892 67.6132 387.922 62.4378 392.32C57.2624 396.718 50.469 399.161 43.4162 399.16H33.0244C25.9722 399.16 19.1798 396.717 14.0052 392.319C8.83057 387.92 5.65519 381.891 5.11393 375.437C5.04695 374.626 5.32085 373.822 5.87938 373.19C6.4379 372.559 7.23867 372.147 8.11723 372.041C14.0549 371.317 20.0926 372.238 25.4565 374.685C30.8204 377.132 35.2662 380.993 38.224 385.774H38.2203ZM66.3961 368.479C59.5899 368.134 52.931 369.764 47.5066 372.419C44.2564 374.009 41.2789 376.056 38.95 378.41C38.8574 378.503 38.7447 378.578 38.6191 378.629C38.4935 378.68 38.3576 378.706 38.2203 378.706C38.083 378.706 37.9472 378.68 37.8215 378.629C37.6959 378.578 37.5832 378.503 37.4907 378.41C35.1691 376.052 32.1879 374.009 28.9377 372.419C23.5244 369.771 16.8876 368.144 10.0998 368.479C7.40971 364.588 5.56719 360.123 5.12498 355.624C5.08353 355.199 5.13407 354.77 5.27369 354.363C5.41332 353.956 5.63928 353.578 5.93858 353.251C6.23788 352.924 6.60462 352.654 7.01772 352.458C7.43082 352.261 7.88213 352.142 8.34571 352.106C17.3925 351.413 24.9431 353.053 31.7162 358.32C34.7748 360.698 36.8237 363.553 38.224 365.989C39.6206 363.553 41.6732 360.698 44.7281 358.32C51.5086 353.05 59.1108 351.413 68.1502 352.106C68.6141 352.142 69.0658 352.261 69.4793 352.457C69.8929 352.653 70.26 352.923 70.5597 353.249C70.8594 353.576 71.0857 353.955 71.2255 354.362C71.3654 354.77 71.4161 355.199 71.3746 355.624C70.9287 360.123 69.0825 364.592 66.3961 368.479Z" fill="black" fill-opacity="0.6"/>
<g clip-path="url(#clip0_2_170)">
<path d="M318.175 207.92C317.822 207.33 317.25 206.882 316.584 206.675C315.918 206.468 315.213 206.518 314.624 206.814C314.035 207.111 313.61 207.63 313.443 208.257C313.276 208.884 313.38 209.567 313.733 210.157L320.85 222.064C312.442 221.059 304.874 226.711 304.367 235.054L301.743 278.07C301.546 281.325 303.796 284.406 307.121 285.424C308.76 285.921 310.486 285.863 312.002 285.261C313.519 284.66 314.73 283.552 315.427 282.128L334.142 243.884C335.828 240.471 335.993 236.455 334.602 232.709C333.211 228.963 330.375 225.79 326.711 223.877L338.584 217.898C339.173 217.601 339.597 217.082 339.765 216.455C339.932 215.828 339.828 215.145 339.475 214.555C339.123 213.965 338.55 213.517 337.885 213.31C337.219 213.102 336.514 213.152 335.925 213.449L327.958 217.462L331.786 203.109C331.927 202.49 331.807 201.825 331.452 201.254C331.098 200.683 330.536 200.25 329.886 200.048C329.235 199.845 328.546 199.888 327.965 200.168C327.383 200.447 326.954 200.942 326.768 201.547L322.941 215.895L318.175 207.92Z" fill="black" fill-opacity="0.6"/>
</g>
<path d="M56.437 85.2035C57.7042 83.6629 59.6678 82.2422 62.1732 82.2422C64.6786 82.2422 66.6422 83.6629 67.9094 85.2035C69.2105 86.7797 70.0859 88.8131 70.3761 90.8288C70.6663 92.8267 70.4244 95.091 69.0847 96.9335C67.6579 98.8915 65.2638 100.001 62.1732 100.001C59.0778 100.001 56.6885 98.8915 55.2617 96.9335C53.9268 95.0866 53.6801 92.8223 53.9703 90.8288C54.2605 88.8131 55.1359 86.7797 56.437 85.2035ZM33.2986 111.767C33.6963 109.713 34.8692 107.853 36.6114 106.514C38.3537 105.174 40.5541 104.44 42.8267 104.441H81.5196C83.9192 104.441 86.233 105.26 88.0117 106.739C89.7904 108.217 90.9069 110.25 91.1445 112.442C88.9124 114.462 86.6106 116.417 84.2427 118.302C82.1677 119.941 79.9961 121.535 78.0663 122.711C77.099 123.297 76.2477 123.75 75.5367 124.047C75.1402 124.24 74.7095 124.366 74.2647 124.42C73.0169 124.42 72.1753 123.683 70.2939 121.805L70.2794 121.792C68.6542 120.176 66.2359 117.761 62.1732 117.761C58.1104 117.761 55.6921 120.176 54.067 121.792L54.0525 121.805C52.1662 123.683 51.3295 124.42 50.0817 124.42C49.978 124.41 49.8758 124.389 49.7769 124.358C49.4919 124.277 49.2138 124.176 48.945 124.056C48.077 123.666 47.2413 123.218 46.4445 122.716C44.5292 121.535 42.3334 119.932 40.2343 118.289C37.8272 116.402 35.482 114.449 33.2019 112.433C33.2261 112.207 33.2599 111.989 33.2986 111.767ZM33.1535 118.471C34.3288 119.461 35.6831 120.567 37.1002 121.677C39.2573 123.364 41.6079 125.091 43.7554 126.409C44.8243 127.067 45.8931 127.653 46.8895 128.083C47.8326 128.487 48.9596 128.865 50.0817 128.865C53.6027 128.865 55.8469 126.6 57.3124 125.117L57.6123 124.82C59.3293 123.102 60.4417 122.201 62.1732 122.201C63.9047 122.201 65.0171 123.102 66.7341 124.816L67.034 125.113C68.4995 126.596 70.7437 128.86 74.2647 128.86C75.4062 128.86 76.5524 128.501 77.5391 128.088C78.6523 127.606 79.7229 127.045 80.7409 126.409C82.9174 125.086 85.2632 123.35 87.401 121.659C88.7649 120.584 90.0611 119.506 91.1929 118.542V135.52H93.6112C94.2525 135.52 94.8677 135.754 95.3212 136.17C95.7747 136.586 96.0295 137.151 96.0295 137.74C96.0295 138.329 95.7747 138.893 95.3212 139.31C94.8677 139.726 94.2525 139.96 93.6112 139.96H30.7352C30.0938 139.96 29.4787 139.726 29.0252 139.31C28.5717 138.893 28.3169 138.329 28.3169 137.74C28.3169 137.151 28.5717 136.586 29.0252 136.17C29.4787 135.754 30.0938 135.52 30.7352 135.52H33.1535V118.471Z" fill="black" fill-opacity="0.6"/>
<path d="M295.252 119.24C295.253 115.003 293.522 110.92 290.402 107.799C287.281 104.677 282.997 102.744 278.398 102.383C273.8 102.022 269.221 103.258 265.567 105.847C261.914 108.436 259.452 112.19 258.669 116.365C257.973 118.453 257.147 120.503 256.195 122.505L245.255 132.547C244.934 132.843 244.715 133.22 244.627 133.63C244.538 134.04 244.584 134.464 244.759 134.85C244.933 135.236 245.228 135.566 245.607 135.798C245.986 136.03 246.43 136.154 246.886 136.154H247.236L240.405 142.425L240.34 142.45C240.222 142.483 240.099 142.499 239.976 142.497C238.052 142.497 236.176 143.05 234.612 144.079C233.048 145.108 231.874 146.561 231.255 148.234C230.636 149.906 230.603 151.715 231.161 153.405C231.719 155.096 232.84 156.583 234.366 157.66C234.596 157.82 234.799 158.011 234.974 158.222C236.146 159.623 237.767 160.652 239.61 161.164C241.452 161.676 243.422 161.645 245.244 161.077C247.067 160.508 248.649 159.43 249.77 157.993C250.89 156.557 251.492 154.834 251.492 153.068C251.489 152.955 251.505 152.842 251.538 152.734C251.547 152.714 251.558 152.696 251.57 152.679L258.401 146.412V146.725C258.401 147.144 258.535 147.553 258.788 147.902C259.041 148.25 259.401 148.521 259.823 148.682C260.244 148.842 260.708 148.884 261.155 148.802C261.602 148.72 262.013 148.518 262.335 148.222L273.188 138.255C274.906 137.554 277.241 136.721 280.355 135.845C284.551 135.093 288.331 133.025 291.048 129.996C293.766 126.967 295.252 123.165 295.252 119.24ZM253.749 136.154H258.401V140.429L248.304 149.698C247.365 150.605 246.855 151.816 246.886 153.068C246.885 153.951 246.584 154.812 246.023 155.53C245.463 156.248 244.672 156.786 243.761 157.07C242.85 157.354 241.865 157.369 240.944 157.113C240.023 156.857 239.213 156.343 238.627 155.643C238.206 155.143 237.717 154.695 237.171 154.311C236.406 153.773 235.844 153.029 235.564 152.183C235.284 151.337 235.3 150.431 235.609 149.594C235.919 148.757 236.507 148.03 237.29 147.515C238.073 147 239.013 146.724 239.976 146.725C241.119 146.725 242.556 146.429 243.661 145.414L253.749 136.154Z" fill="black" fill-opacity="0.6"/>
<path fill-rule="evenodd" clip-rule="evenodd" d="M361.723 421.125L356.666 405.087L368.278 395.86L371.946 407.494V401.116L386.456 397.346V404.204L399.072 399.072L398.929 400.852L401.437 392.677H416.189L410.449 408.938L414.112 408.142L409.662 422.261C409.95 422.024 410.242 421.784 410.532 421.539C410.926 421.2 411.435 420.974 411.987 420.894C412.54 420.813 413.108 420.882 413.612 421.09C414.116 421.299 414.53 421.636 414.797 422.055C415.064 422.474 415.169 422.953 415.099 423.426L409.714 460.063C409.588 460.916 409.101 461.7 408.343 462.268C407.585 462.837 406.61 463.15 405.599 463.15H367.314C366.303 463.15 365.328 462.836 364.571 462.268C363.813 461.699 363.326 460.915 363.201 460.063L357.814 423.435C357.754 423.021 357.827 422.602 358.027 422.222C358.227 421.841 358.546 421.515 358.948 421.277C359.351 421.039 359.822 420.9 360.311 420.873C360.8 420.847 361.289 420.934 361.723 421.127V421.125ZM402.191 415.17L408.078 413.669L404.015 426.551C401.706 428.149 399.503 429.459 397.368 430.475L402.191 415.17ZM392.254 432.381L394.453 404.856L389.085 407.039L386.999 433.132C388.784 433.092 390.552 432.839 392.254 432.381ZM376.092 430.634C378.221 431.61 380.281 432.302 382.311 432.707V402.103L376.092 403.72V430.632V430.634ZM367.357 425.383C368.832 426.457 370.364 427.474 371.946 428.431V421.099L366.062 402.444L361.315 406.216L367.357 425.383ZM405.763 409.957L400.038 411.201L404.639 396.2H410.617L405.763 409.957Z" fill="black" fill-opacity="0.6"/>
<path d="M178.252 46.5803C176.987 45.4023 176.237 43.8398 176.141 42.188C176.046 40.5363 176.614 38.9099 177.736 37.6161C179.687 35.3733 180.984 32.7117 181.505 29.8818C182.026 27.052 181.754 24.1469 180.715 21.4402C179.675 18.7335 177.903 16.314 175.564 14.4096C173.225 12.5052 170.396 11.1785 167.345 10.5544C166.083 10.3122 164.8 10.1763 163.512 10.1484C158.625 10.1484 153.939 11.9304 150.484 15.1023C147.028 18.2742 145.087 22.5763 145.087 27.062C145.105 30.9044 146.547 34.6267 149.177 37.6161C150.264 38.8854 150.82 40.4695 150.746 42.0824C150.672 43.6953 149.972 45.2306 148.772 46.4111C146.308 48.8029 144.579 51.7521 143.762 54.9577C142.945 58.1633 143.069 61.5104 144.122 64.6575C145.175 67.8046 147.119 70.6388 149.755 72.871C152.391 75.1031 155.625 76.6532 159.127 77.363C160.567 77.6578 162.037 77.8052 163.512 77.8027C167.438 77.7754 171.271 76.7017 174.545 74.7123C177.819 72.7229 180.394 69.9033 181.955 66.5963C183.516 63.2893 183.997 59.6372 183.34 56.0839C182.683 52.5305 180.915 49.2289 178.252 46.5803ZM167.197 20.2966C167.926 20.2966 168.638 20.495 169.245 20.8667C169.851 21.2384 170.323 21.7667 170.602 22.3848C170.881 23.0029 170.954 23.6831 170.811 24.3392C170.669 24.9954 170.318 25.5982 169.803 26.0712C169.288 26.5443 168.631 26.8665 167.916 26.997C167.201 27.1275 166.46 27.0606 165.787 26.8045C165.114 26.5485 164.538 26.1149 164.133 25.5586C163.728 25.0023 163.512 24.3483 163.512 23.6793C163.512 22.7821 163.9 21.9217 164.591 21.2874C165.283 20.653 166.22 20.2966 167.197 20.2966ZM159.827 64.2719C159.098 64.2719 158.386 64.0735 157.78 63.7018C157.174 63.3301 156.702 62.8018 156.423 62.1837C156.144 61.5656 156.071 60.8854 156.213 60.2292C156.355 59.573 156.706 58.9703 157.221 58.4972C157.737 58.0241 158.393 57.702 159.108 57.5715C159.823 57.4409 160.564 57.5079 161.237 57.7639C161.911 58.02 162.486 58.4535 162.891 59.0098C163.296 59.5661 163.512 60.2201 163.512 60.8892C163.512 61.7863 163.124 62.6467 162.433 63.2811C161.742 63.9155 160.804 64.2719 159.827 64.2719ZM163.512 54.1237C163.512 53.4547 163.728 52.8007 164.133 52.2444C164.538 51.6881 165.114 51.2545 165.787 50.9985C166.46 50.7425 167.201 50.6755 167.916 50.806C168.631 50.9365 169.288 51.2587 169.803 51.7318C170.318 52.2049 170.669 52.8076 170.811 53.4638C170.954 54.12 170.881 54.8001 170.602 55.4182C170.323 56.0364 169.851 56.5647 169.245 56.9364C168.638 57.3081 167.926 57.5065 167.197 57.5065C166.22 57.5065 165.283 57.1501 164.591 56.5157C163.9 55.8813 163.512 55.0209 163.512 54.1237ZM170.882 67.6546C170.153 67.6546 169.441 67.4562 168.835 67.0845C168.229 66.7128 167.757 66.1845 167.478 65.5664C167.199 64.9483 167.126 64.2681 167.268 63.6119C167.41 62.9558 167.761 62.353 168.277 61.8799C168.792 61.4069 169.448 61.0847 170.163 60.9542C170.878 60.8236 171.619 60.8906 172.292 61.1467C172.966 61.4027 173.541 61.8363 173.946 62.3925C174.351 62.9488 174.567 63.6028 174.567 64.2719C174.567 65.169 174.179 66.0294 173.488 66.6638C172.797 67.2982 171.86 67.6546 170.882 67.6546Z" fill="black" fill-opacity="0.6"/>
<defs>
<clipPath id="clip0_2_170">
<rect width="79.5813" height="82.9206" fill="white" transform="matrix(0.893114 -0.44983 0.513053 0.858357 261.475 225.867)"/>
</clipPath>
</defs>
</svg>
