<svg width="46" height="45" viewBox="0 0 46 45" fill="none" xmlns="http://www.w3.org/2000/svg">
<path d="M25.3128 0.418733C26.9547 0.412549 28.5966 0.428745 30.2381 0.467316L30.6746 0.482775C31.1786 0.500441 31.6758 0.522524 32.2766 0.549024C34.6706 0.659441 36.3041 1.03044 37.7373 1.5759C39.2223 2.13682 40.4733 2.89648 41.7243 4.12432C42.8682 5.22761 43.7534 6.5622 44.3186 8.03527C44.8743 9.44198 45.2523 11.0474 45.3648 13.3971C45.3918 13.9845 45.4143 14.4748 45.4323 14.9694L45.4458 15.3979C45.4858 17.0082 45.5031 18.6189 45.4976 20.2297L45.4998 21.8771V24.77C45.5054 26.3815 45.4881 27.993 45.4481 29.6041L45.4346 30.0325C45.4166 30.5272 45.3941 31.0152 45.3671 31.6048C45.2546 33.9545 44.8721 35.5577 44.3186 36.9644C43.7553 38.4391 42.8698 39.7748 41.7243 40.8776C40.5992 42.0002 39.2388 42.869 37.7373 43.4238C36.3041 43.9693 34.6706 44.3403 32.2766 44.4507C31.6758 44.4772 31.1786 44.4993 30.6746 44.5169L30.2381 44.5302C28.5967 44.5695 26.9547 44.5864 25.3128 44.581L23.6343 44.5832H20.6891C19.0472 44.5886 17.4053 44.5717 15.7638 44.5324L15.3273 44.5192C14.7932 44.5002 14.2592 44.4781 13.7253 44.4529C11.3313 44.3425 9.69783 43.9671 8.26233 43.4238C6.76087 42.8703 5.40087 42.0013 4.27758 40.8776C3.13244 39.7741 2.24634 38.4386 1.68108 36.9644C1.12533 35.5577 0.747333 33.9545 0.634833 31.6048C0.609775 31.0808 0.587275 30.5567 0.567333 30.0325L0.556084 29.6041C0.514602 27.9931 0.49585 26.3816 0.499833 24.77V20.2297C0.493554 18.6189 0.510055 17.0082 0.549334 15.3979L0.565084 14.9694C0.583084 14.4748 0.605583 13.9845 0.632583 13.3971C0.745083 11.0452 1.12308 9.44419 1.67883 8.03527C2.24442 6.56148 3.13225 5.22726 4.27983 4.12652C5.40235 3.00194 6.7615 2.13146 8.26233 1.5759C9.69783 1.03044 11.3291 0.659441 13.7253 0.549024L15.3273 0.482775L15.7638 0.471733C17.4045 0.43104 19.0457 0.412635 20.6868 0.416525L25.3128 0.418733ZM22.9998 11.4604C21.5092 11.4397 20.0293 11.71 18.646 12.2555C17.2628 12.8011 16.0038 13.611 14.9422 14.6383C13.8807 15.6656 13.0377 16.8897 12.4624 18.2395C11.887 19.5892 11.5907 21.0378 11.5907 22.501C11.5907 23.9641 11.887 25.4127 12.4624 26.7625C13.0377 28.1123 13.8807 29.3364 14.9422 30.3636C16.0038 31.3909 17.2628 32.2008 18.646 32.7464C20.0293 33.2919 21.5092 33.5622 22.9998 33.5415C25.9835 33.5415 28.845 32.3782 30.9548 30.3075C33.0646 28.2368 34.2498 25.4283 34.2498 22.4999C34.2498 19.5714 33.0646 16.7629 30.9548 14.6922C28.845 12.6215 25.9835 11.4604 22.9998 11.4604ZM22.9998 15.8771C23.8965 15.8609 24.7874 16.0202 25.6206 16.3457C26.4538 16.6712 27.2126 17.1564 27.8526 17.773C28.4926 18.3896 29.001 19.1252 29.3481 19.9367C29.6952 20.7483 29.874 21.6197 29.8742 22.4998C29.8743 23.38 29.6958 24.2514 29.349 25.0631C29.0021 25.8748 28.494 26.6105 27.8542 27.2273C27.2144 27.8441 26.4558 28.3296 25.6227 28.6554C24.7896 28.9812 23.8987 29.1408 23.0021 29.1249C21.2119 29.1249 19.495 28.4269 18.2291 27.1844C16.9632 25.942 16.2521 24.2569 16.2521 22.4999C16.2521 20.7428 16.9632 19.0577 18.2291 17.8153C19.495 16.5728 21.2119 15.8749 23.0021 15.8749L22.9998 15.8771ZM34.8123 8.1479C34.0865 8.17641 33.4 8.47948 32.8967 8.99363C32.3934 9.50777 32.1123 10.1931 32.1123 10.9061C32.1123 11.6191 32.3934 12.3044 32.8967 12.8186C33.4 13.3327 34.0865 13.6358 34.8123 13.6643C35.5583 13.6643 36.2736 13.3735 36.8011 12.8558C37.3285 12.3381 37.6248 11.636 37.6248 10.9039C37.6248 10.1718 37.3285 9.46967 36.8011 8.95199C36.2736 8.43431 35.5583 8.14348 34.8123 8.14348V8.1479Z" fill="#CDCDCD"/>
</svg>
