<svg width="55" height="54" viewBox="0 0 55 54" fill="none" xmlns="http://www.w3.org/2000/svg">
<path d="M50.9973 14.5C49.2327 15.2875 47.3307 15.805 45.3598 16.0525C47.3765 14.86 48.9348 12.97 49.6682 10.6975C47.7661 11.8225 45.6577 12.61 43.4348 13.06C41.6244 11.125 39.0807 10 36.1932 10C30.8077 10 26.4077 14.32 26.4077 19.6525C26.4077 20.4175 26.4994 21.16 26.6598 21.8575C18.5015 21.4525 11.2369 17.605 6.4015 11.7775C5.55358 13.195 5.07233 14.86 5.07233 16.615C5.07233 19.9675 6.79108 22.9375 9.44941 24.625C7.82233 24.625 6.30983 24.175 4.98066 23.5V23.5675C4.98066 28.2475 8.37233 32.1625 12.864 33.04C11.4219 33.4275 9.90797 33.4814 8.44108 33.1975C9.06351 35.1156 10.2825 36.7939 11.9267 37.9966C13.571 39.1993 15.5577 39.8658 17.6077 39.9025C14.1327 42.6035 9.82524 44.0635 5.39316 44.0425C4.614 44.0425 3.83483 43.9975 3.05566 43.9075C7.40983 46.6525 12.589 48.25 18.1348 48.25C36.1932 48.25 46.1161 33.535 46.1161 20.7775C46.1161 20.35 46.1161 19.945 46.0932 19.5175C48.0182 18.1675 49.6682 16.4575 50.9973 14.5Z" fill="#CDCDCD"/>
</svg>
