<svg width="61" height="60" viewBox="0 0 61 60" fill="none" xmlns="http://www.w3.org/2000/svg">
<g clip-path="url(#clip0_87_50)">
<path fill-rule="evenodd" clip-rule="evenodd" d="M30.5002 5C16.4625 5 5.0835 16.1925 5.0835 30C5.0835 43.8075 16.4625 55 30.5002 55C44.5378 55 55.9168 43.8075 55.9168 30C55.9168 16.1925 44.5378 5 30.5002 5ZM21.6043 23.75C21.6043 22.6009 21.8344 21.4631 22.2815 20.4015C22.7285 19.3399 23.3838 18.3753 24.2099 17.5628C25.0359 16.7503 26.0166 16.1058 27.0959 15.6661C28.1752 15.2263 29.3319 15 30.5002 15C31.6684 15 32.8252 15.2263 33.9044 15.6661C34.9837 16.1058 35.9644 16.7503 36.7905 17.5628C37.6165 18.3753 38.2718 19.3399 38.7188 20.4015C39.1659 21.4631 39.396 22.6009 39.396 23.75C39.396 26.0706 38.4588 28.2962 36.7905 29.9372C35.1222 31.5781 32.8595 32.5 30.5002 32.5C28.1408 32.5 25.8782 31.5781 24.2099 29.9372C22.5416 28.2962 21.6043 26.0706 21.6043 23.75ZM46.4059 42.46C44.5033 44.8141 42.0846 46.7149 39.3303 48.0205C36.5761 49.3261 33.5576 50.0028 30.5002 50C27.4428 50.0028 24.4242 49.3261 21.67 48.0205C18.9157 46.7149 16.497 44.8141 14.5944 42.46C18.7145 39.5525 24.3366 37.5 30.5002 37.5C36.6637 37.5 42.2859 39.5525 46.4059 42.46Z" fill="#CCCCCC"/>
</g>
<defs>
<clipPath id="clip0_87_50">
<rect width="61" height="60" fill="white"/>
</clipPath>
</defs>
</svg>
